<mxfile host="app.diagrams.net" agent="Mozilla/5.0 (Windows NT 10.0; Win64; x64) AppleWebKit/537.36 (KHTML, like Gecko) Chrome/136.0.0.0 Safari/537.36 Edg/136.0.0.0" version="27.0.3">
  <diagram name="Trang-1" id="VZa6VVG1NBFgL-bh7kXp">
    <mxGraphModel dx="1227" dy="606" grid="1" gridSize="10" guides="1" tooltips="1" connect="1" arrows="1" fold="1" page="1" pageScale="1" pageWidth="827" pageHeight="1169" math="0" shadow="0">
      <root>
        <mxCell id="0" />
        <mxCell id="1" parent="0" />
        <mxCell id="FzTUoiFwDsf6g1QKJG6i-7" style="edgeStyle=orthogonalEdgeStyle;rounded=0;orthogonalLoop=1;jettySize=auto;html=1;entryX=0;entryY=0.5;entryDx=0;entryDy=0;" edge="1" parent="1" source="FzTUoiFwDsf6g1QKJG6i-1" target="FzTUoiFwDsf6g1QKJG6i-6">
          <mxGeometry relative="1" as="geometry" />
        </mxCell>
        <mxCell id="FzTUoiFwDsf6g1QKJG6i-1" value="Staff" style="shape=umlActor;verticalLabelPosition=bottom;verticalAlign=top;html=1;outlineConnect=0;" vertex="1" parent="1">
          <mxGeometry x="110" y="170" width="50" height="90" as="geometry" />
        </mxCell>
        <mxCell id="FzTUoiFwDsf6g1QKJG6i-11" style="edgeStyle=orthogonalEdgeStyle;rounded=0;orthogonalLoop=1;jettySize=auto;html=1;entryX=0;entryY=0.5;entryDx=0;entryDy=0;" edge="1" parent="1" source="FzTUoiFwDsf6g1QKJG6i-6" target="FzTUoiFwDsf6g1QKJG6i-10">
          <mxGeometry relative="1" as="geometry" />
        </mxCell>
        <mxCell id="FzTUoiFwDsf6g1QKJG6i-6" value="System" style="ellipse;whiteSpace=wrap;html=1;" vertex="1" parent="1">
          <mxGeometry x="354" y="175" width="120" height="80" as="geometry" />
        </mxCell>
        <mxCell id="FzTUoiFwDsf6g1QKJG6i-8" value="1" style="text;html=1;align=center;verticalAlign=middle;resizable=0;points=[];autosize=1;strokeColor=none;fillColor=none;" vertex="1" parent="1">
          <mxGeometry x="155" y="188" width="30" height="30" as="geometry" />
        </mxCell>
        <mxCell id="FzTUoiFwDsf6g1QKJG6i-9" value="Nhập thông tin cập nhật" style="text;html=1;align=center;verticalAlign=middle;resizable=0;points=[];autosize=1;strokeColor=none;fillColor=none;" vertex="1" parent="1">
          <mxGeometry x="185" y="188" width="150" height="30" as="geometry" />
        </mxCell>
        <mxCell id="FzTUoiFwDsf6g1QKJG6i-17" style="edgeStyle=orthogonalEdgeStyle;rounded=0;orthogonalLoop=1;jettySize=auto;html=1;" edge="1" parent="1" source="FzTUoiFwDsf6g1QKJG6i-10" target="FzTUoiFwDsf6g1QKJG6i-16">
          <mxGeometry relative="1" as="geometry" />
        </mxCell>
        <mxCell id="FzTUoiFwDsf6g1QKJG6i-23" style="edgeStyle=orthogonalEdgeStyle;rounded=0;orthogonalLoop=1;jettySize=auto;html=1;entryX=0.5;entryY=0;entryDx=0;entryDy=0;" edge="1" parent="1" source="FzTUoiFwDsf6g1QKJG6i-10" target="FzTUoiFwDsf6g1QKJG6i-6">
          <mxGeometry relative="1" as="geometry">
            <Array as="points">
              <mxPoint x="650" y="120" />
              <mxPoint x="414" y="120" />
            </Array>
          </mxGeometry>
        </mxCell>
        <mxCell id="FzTUoiFwDsf6g1QKJG6i-10" value="InventoryService" style="rhombus;whiteSpace=wrap;html=1;" vertex="1" parent="1">
          <mxGeometry x="590" y="160" width="120" height="110" as="geometry" />
        </mxCell>
        <mxCell id="FzTUoiFwDsf6g1QKJG6i-12" value="2" style="text;html=1;align=center;verticalAlign=middle;resizable=0;points=[];autosize=1;strokeColor=none;fillColor=none;" vertex="1" parent="1">
          <mxGeometry x="465" y="178" width="30" height="30" as="geometry" />
        </mxCell>
        <mxCell id="FzTUoiFwDsf6g1QKJG6i-13" value="Kiểm tra hợp lệ" style="text;html=1;align=center;verticalAlign=middle;resizable=0;points=[];autosize=1;strokeColor=none;fillColor=none;" vertex="1" parent="1">
          <mxGeometry x="474" y="188" width="110" height="30" as="geometry" />
        </mxCell>
        <mxCell id="FzTUoiFwDsf6g1QKJG6i-20" style="edgeStyle=orthogonalEdgeStyle;rounded=0;orthogonalLoop=1;jettySize=auto;html=1;entryX=0.5;entryY=1;entryDx=0;entryDy=0;" edge="1" parent="1" source="FzTUoiFwDsf6g1QKJG6i-16" target="FzTUoiFwDsf6g1QKJG6i-6">
          <mxGeometry relative="1" as="geometry" />
        </mxCell>
        <mxCell id="FzTUoiFwDsf6g1QKJG6i-16" value="Database" style="shape=cylinder;whiteSpace=wrap;html=1;" vertex="1" parent="1">
          <mxGeometry x="590" y="480" width="120" height="80" as="geometry" />
        </mxCell>
        <mxCell id="FzTUoiFwDsf6g1QKJG6i-18" value="3" style="text;html=1;align=center;verticalAlign=middle;resizable=0;points=[];autosize=1;strokeColor=none;fillColor=none;" vertex="1" parent="1">
          <mxGeometry x="645" y="268" width="30" height="30" as="geometry" />
        </mxCell>
        <mxCell id="FzTUoiFwDsf6g1QKJG6i-19" value="Truy vấn tồn khi hiện tại" style="text;html=1;align=center;verticalAlign=middle;resizable=0;points=[];autosize=1;strokeColor=none;fillColor=none;rotation=90;" vertex="1" parent="1">
          <mxGeometry x="600" y="330" width="150" height="30" as="geometry" />
        </mxCell>
        <mxCell id="FzTUoiFwDsf6g1QKJG6i-21" value="3" style="text;html=1;align=center;verticalAlign=middle;resizable=0;points=[];autosize=1;strokeColor=none;fillColor=none;" vertex="1" parent="1">
          <mxGeometry x="560" y="480" width="30" height="30" as="geometry" />
        </mxCell>
        <mxCell id="FzTUoiFwDsf6g1QKJG6i-22" value="Trả số lượng tồn kho(chưa cập nhật)" style="text;html=1;align=center;verticalAlign=middle;resizable=0;points=[];autosize=1;strokeColor=none;fillColor=none;rotation=90;" vertex="1" parent="1">
          <mxGeometry x="320" y="390" width="220" height="30" as="geometry" />
        </mxCell>
        <mxCell id="FzTUoiFwDsf6g1QKJG6i-24" value="4" style="text;html=1;align=center;verticalAlign=middle;resizable=0;points=[];autosize=1;strokeColor=none;fillColor=none;" vertex="1" parent="1">
          <mxGeometry x="645" y="128" width="30" height="30" as="geometry" />
        </mxCell>
        <mxCell id="FzTUoiFwDsf6g1QKJG6i-25" value="Xác nhận hợp lệ" style="text;html=1;align=center;verticalAlign=middle;resizable=0;points=[];autosize=1;strokeColor=none;fillColor=none;" vertex="1" parent="1">
          <mxGeometry x="465" y="88" width="110" height="30" as="geometry" />
        </mxCell>
        <mxCell id="FzTUoiFwDsf6g1QKJG6i-26" style="rounded=0;orthogonalLoop=1;jettySize=auto;html=1;entryX=0.15;entryY=0.05;entryDx=0;entryDy=0;entryPerimeter=0;exitX=0.78;exitY=0.888;exitDx=0;exitDy=0;exitPerimeter=0;" edge="1" parent="1" source="FzTUoiFwDsf6g1QKJG6i-6" target="FzTUoiFwDsf6g1QKJG6i-16">
          <mxGeometry relative="1" as="geometry" />
        </mxCell>
        <mxCell id="FzTUoiFwDsf6g1QKJG6i-27" value="5" style="text;html=1;align=center;verticalAlign=middle;resizable=0;points=[];autosize=1;strokeColor=none;fillColor=none;" vertex="1" parent="1">
          <mxGeometry x="455" y="248" width="30" height="30" as="geometry" />
        </mxCell>
        <mxCell id="FzTUoiFwDsf6g1QKJG6i-28" value="Cập nhật tồn kho mới" style="text;html=1;align=center;verticalAlign=middle;resizable=0;points=[];autosize=1;strokeColor=none;fillColor=none;rotation=60;" vertex="1" parent="1">
          <mxGeometry x="465" y="330" width="140" height="30" as="geometry" />
        </mxCell>
        <mxCell id="FzTUoiFwDsf6g1QKJG6i-29" value="" style="endArrow=classic;html=1;rounded=0;entryX=0.5;entryY=0.067;entryDx=0;entryDy=0;entryPerimeter=0;" edge="1" parent="1" target="FzTUoiFwDsf6g1QKJG6i-9">
          <mxGeometry width="50" height="50" relative="1" as="geometry">
            <mxPoint x="210" y="190" as="sourcePoint" />
            <mxPoint x="260" y="140" as="targetPoint" />
          </mxGeometry>
        </mxCell>
        <mxCell id="FzTUoiFwDsf6g1QKJG6i-30" value="" style="endArrow=classic;html=1;rounded=0;entryX=0.8;entryY=0;entryDx=0;entryDy=0;entryPerimeter=0;" edge="1" parent="1" target="FzTUoiFwDsf6g1QKJG6i-19">
          <mxGeometry width="50" height="50" relative="1" as="geometry">
            <mxPoint x="690" y="310" as="sourcePoint" />
            <mxPoint x="740" y="260" as="targetPoint" />
          </mxGeometry>
        </mxCell>
        <mxCell id="FzTUoiFwDsf6g1QKJG6i-31" value="" style="endArrow=classic;html=1;rounded=0;" edge="1" parent="1">
          <mxGeometry width="50" height="50" relative="1" as="geometry">
            <mxPoint x="520" y="526" as="sourcePoint" />
            <mxPoint x="460" y="526" as="targetPoint" />
          </mxGeometry>
        </mxCell>
        <mxCell id="FzTUoiFwDsf6g1QKJG6i-32" value="" style="endArrow=classic;html=1;rounded=0;" edge="1" parent="1">
          <mxGeometry width="50" height="50" relative="1" as="geometry">
            <mxPoint x="402" y="450" as="sourcePoint" />
            <mxPoint x="402" y="340" as="targetPoint" />
          </mxGeometry>
        </mxCell>
        <mxCell id="FzTUoiFwDsf6g1QKJG6i-33" style="edgeStyle=orthogonalEdgeStyle;rounded=0;orthogonalLoop=1;jettySize=auto;html=1;entryX=0.087;entryY=0.758;entryDx=0;entryDy=0;entryPerimeter=0;exitX=0.087;exitY=0.207;exitDx=0;exitDy=0;exitPerimeter=0;" edge="1" parent="1" source="FzTUoiFwDsf6g1QKJG6i-35" target="FzTUoiFwDsf6g1QKJG6i-6">
          <mxGeometry relative="1" as="geometry">
            <mxPoint x="642.8" y="590.76" as="sourcePoint" />
            <mxPoint x="350.04" y="260" as="targetPoint" />
            <Array as="points">
              <mxPoint x="643" y="561" />
              <mxPoint x="643" y="601" />
              <mxPoint x="350" y="601" />
              <mxPoint x="350" y="236" />
            </Array>
          </mxGeometry>
        </mxCell>
        <mxCell id="FzTUoiFwDsf6g1QKJG6i-35" value="6" style="text;html=1;align=center;verticalAlign=middle;resizable=0;points=[];autosize=1;strokeColor=none;fillColor=none;" vertex="1" parent="1">
          <mxGeometry x="645" y="555" width="30" height="30" as="geometry" />
        </mxCell>
        <mxCell id="FzTUoiFwDsf6g1QKJG6i-37" value="Xác nhận hoàn tất" style="text;html=1;align=center;verticalAlign=middle;resizable=0;points=[];autosize=1;strokeColor=none;fillColor=none;" vertex="1" parent="1">
          <mxGeometry x="410" y="570" width="120" height="30" as="geometry" />
        </mxCell>
        <mxCell id="FzTUoiFwDsf6g1QKJG6i-38" value="" style="edgeStyle=none;orthogonalLoop=1;jettySize=auto;html=1;rounded=0;" edge="1" parent="1">
          <mxGeometry width="100" relative="1" as="geometry">
            <mxPoint x="494" y="610" as="sourcePoint" />
            <mxPoint x="424" y="610" as="targetPoint" />
            <Array as="points" />
          </mxGeometry>
        </mxCell>
        <mxCell id="FzTUoiFwDsf6g1QKJG6i-39" style="edgeStyle=orthogonalEdgeStyle;rounded=0;orthogonalLoop=1;jettySize=auto;html=1;entryX=0.5;entryY=0;entryDx=0;entryDy=0;entryPerimeter=0;exitX=0;exitY=0;exitDx=0;exitDy=0;" edge="1" parent="1" source="FzTUoiFwDsf6g1QKJG6i-6" target="FzTUoiFwDsf6g1QKJG6i-1">
          <mxGeometry relative="1" as="geometry">
            <Array as="points">
              <mxPoint x="370" y="187" />
              <mxPoint x="370" y="100" />
              <mxPoint x="135" y="100" />
            </Array>
          </mxGeometry>
        </mxCell>
        <mxCell id="FzTUoiFwDsf6g1QKJG6i-40" value="Thông báo" style="text;html=1;align=center;verticalAlign=middle;resizable=0;points=[];autosize=1;strokeColor=none;fillColor=none;" vertex="1" parent="1">
          <mxGeometry x="185" y="68" width="80" height="30" as="geometry" />
        </mxCell>
        <mxCell id="FzTUoiFwDsf6g1QKJG6i-41" value="7" style="text;html=1;align=center;verticalAlign=middle;resizable=0;points=[];autosize=1;strokeColor=none;fillColor=none;" vertex="1" parent="1">
          <mxGeometry x="345" y="158" width="30" height="30" as="geometry" />
        </mxCell>
      </root>
    </mxGraphModel>
  </diagram>
</mxfile>
